<?xml version="1.0" encoding="UTF-8"?>
<svg id="Camada_1" data-name="Camada 1" xmlns="http://www.w3.org/2000/svg" viewBox="0 0 512 512">
  <defs>
    <style>
      .cls-1 {
        fill: #fff;
      }
    </style>
  </defs>
  <path class="cls-1" d="M512,256C512,114.62,397.38,0,256,0S0,114.62,0,256s114.62,256,256,256,256-114.62,256-256ZM116.7,244.7l112-112c4.6-4.6,11.5-5.9,17.4-3.5,5.9,2.4,9.9,8.3,9.9,14.8v64h96c17.7,0,32,14.3,32,32v32c0,17.7-14.3,32-32,32h-96v64c0,6.5-3.9,12.3-9.9,14.8s-12.9,1.1-17.4-3.5l-112-112c-6.2-6.2-6.2-16.4,0-22.6h0Z"/>
</svg>